<?xml version="1.0" encoding="UTF-8"?><svg id="Layer_2" xmlns="http://www.w3.org/2000/svg" xmlns:xlink="http://www.w3.org/1999/xlink" viewBox="0 0 2133 1106"><defs><style>.cls-1,.cls-2,.cls-3,.cls-4,.cls-5,.cls-6,.cls-7,.cls-8,.cls-9,.cls-10,.cls-11,.cls-12,.cls-13,.cls-14{font-family:ArialRoundedMT, 'Arial Rounded MT';}.cls-15,.cls-16,.cls-17,.cls-18,.cls-19,.cls-20{fill:none;}.cls-21,.cls-22{font-family:ArialMT, Arial;}.cls-2{font-size:30px;}.cls-2,.cls-23,.cls-24,.cls-25,.cls-26,.cls-4,.cls-5,.cls-27,.cls-7,.cls-8,.cls-9,.cls-28,.cls-29,.cls-30,.cls-10,.cls-31,.cls-12,.cls-32,.cls-13,.cls-33,.cls-14,.cls-34,.cls-35,.cls-36{fill:#f7931e;}.cls-16{stroke:#7f47dd;stroke-width:3px;}.cls-16,.cls-37,.cls-26,.cls-3,.cls-6,.cls-38,.cls-39,.cls-40,.cls-41,.cls-17,.cls-18,.cls-19,.cls-20,.cls-11,.cls-33{stroke-miterlimit:10;}.cls-42{fill:url(#New_Pattern);}.cls-37{font-size:36px;}.cls-37,.cls-3,.cls-6,.cls-38,.cls-39,.cls-11{fill:lime;stroke:lime;}.cls-43{fill:url(#linear-gradient);opacity:.88;}.cls-22{letter-spacing:0em;}.cls-23{font-size:506.39px;letter-spacing:-.02em;}.cls-23,.cls-24,.cls-25,.cls-27,.cls-31,.cls-35{font-family:True-LCD, 'True LCD';}.cls-44{letter-spacing:-.08em;}.cls-24{letter-spacing:-.04em;}.cls-24,.cls-25{font-size:496px;}.cls-25{letter-spacing:-.04em;}.cls-26{stroke-width:25px;}.cls-26,.cls-40,.cls-18,.cls-19,.cls-33{stroke:#f7931e;}.cls-45{letter-spacing:-.07em;}.cls-3{font-size:61.29px;}.cls-4{font-size:48.94px;letter-spacing:-.02em;}.cls-5{font-size:42px;}.cls-27{font-size:363.59px;letter-spacing:-.02em;}.cls-46{fill:red;}.cls-47{letter-spacing:0em;}.cls-48{letter-spacing:-.12em;}.cls-6{font-size:60px;}.cls-38,.cls-39,.cls-40,.cls-41,.cls-19,.cls-20{stroke-width:4px;}.cls-39,.cls-40,.cls-19{stroke-linecap:round;}.cls-7{font-size:45.85px;}.cls-40{fill:#e78200;}.cls-8{font-size:49px;}.cls-49{letter-spacing:-.1em;}.cls-50{letter-spacing:0em;}.cls-51{letter-spacing:-.04em;}.cls-9{font-size:43.24px;}.cls-28{font-size:108.34px;letter-spacing:-.07em;}.cls-28,.cls-29,.cls-30,.cls-32,.cls-34,.cls-36{font-family:ZenAntique-Regular, 'Zen Antique';}.cls-52{letter-spacing:-.05em;}.cls-53{letter-spacing:-.03em;}.cls-54{letter-spacing:-.1em;}.cls-29{font-size:107.48px;letter-spacing:-.07em;}.cls-41{stroke:#000;}.cls-17,.cls-18{stroke-width:2px;}.cls-17,.cls-20{stroke:#f15a24;}.cls-30{font-size:67.1px;letter-spacing:-.23em;}.cls-10,.cls-34{font-size:56px;}.cls-55{fill:url(#New_Pattern-2);}.cls-56{letter-spacing:-.06em;}.cls-11{font-size:34.98px;}.cls-31{font-size:269.47px;letter-spacing:-.02em;}.cls-57{letter-spacing:0em;}.cls-12{font-size:48.21px;}.cls-58{letter-spacing:-.05em;}.cls-32{font-size:93.92px;letter-spacing:-.26em;}.cls-13{font-size:51.86px;}.cls-59{fill:#fff;opacity:0;}.cls-60{letter-spacing:-.08em;}.cls-33{stroke-width:23px;}.cls-61{letter-spacing:-.06em;}.cls-62{letter-spacing:-.08em;}.cls-63{letter-spacing:-.03em;}.cls-64{letter-spacing:-.02em;}.cls-14{font-size:52px;letter-spacing:-.01em;}.cls-65{letter-spacing:-.02em;}.cls-66{letter-spacing:-.02em;}.cls-67{letter-spacing:-.02em;}.cls-68{letter-spacing:-.02em;}.cls-69{letter-spacing:-.02em;}.cls-34{letter-spacing:-.07em;}.cls-35{font-size:505.87px;letter-spacing:-.02em;}.cls-36{font-size:89.72px;letter-spacing:-.07em;}.cls-70{letter-spacing:-.03em;}</style><linearGradient id="linear-gradient" x1="28" y1="552.5" x2="2102" y2="552.5" gradientUnits="userSpaceOnUse"><stop offset="0" stop-color="#c1272d"/><stop offset=".4" stop-color="#fbae17"/><stop offset="1" stop-color="#006837"/></linearGradient><pattern id="New_Pattern" x="0" y="0" width="100" height="96" patternTransform="translate(7721.63 -10167.06) rotate(-47.29) scale(1.41 1.52) skewX(13.98)" patternUnits="userSpaceOnUse" viewBox="0 0 100 96"><g><rect class="cls-15" width="100" height="96"/><g><rect class="cls-46" x="0" y="64" width="100" height="17"/><rect x="0" y="81" width="100" height="15"/></g><g><rect class="cls-46" x="0" y="32" width="100" height="17"/><rect x="0" y="49" width="100" height="15"/></g><g><rect class="cls-46" x="0" y="0" width="100" height="17"/><rect x="0" y="17" width="100" height="15"/></g></g></pattern><pattern id="New_Pattern-2" patternTransform="translate(7626.16 -10349.64) rotate(-47.29) scale(1.41 1.52) skewX(13.98)" xlink:href="#New_Pattern"/></defs><g id="eva-clock"><g id="pan-help"><text id="help-p" class="cls-6" transform="translate(855.18 119.62) scale(.94 1)"><tspan x="0" y="0">PERSPECTIVE (p)</tspan></text><text id="help-f" class="cls-3" transform="translate(1789.32 524.33) scale(.5 1)"><tspan x="0" y="0">FULLSCREEN (F)</tspan></text><text id="help-space" class="cls-6" transform="translate(910.04 470.48) scale(.97 1)"><tspan x="0" y="0">PL</tspan><tspan class="cls-44" x="72.48" y="0">A</tspan><tspan class="cls-57" x="108.96" y="0">Y / </tspan><tspan class="cls-54" x="196.56" y="0">P</tspan><tspan class="cls-51" x="228.48" y="0">A</tspan><tspan x="267.54" y="0">USE</tspan><tspan x="42.09" y="72">(spacebar)</tspan></text><text id="help-r" class="cls-6" transform="translate(1801.9 374.68) scale(.93 1)"><tspan x="0" y="0">RESET (r)</tspan></text><text id="help-m" class="cls-6" transform="translate(1790.73 661.88) scale(.95 1)"><tspan x="0" y="0">MODE (m)</tspan></text><text id="help-up" class="cls-37" transform="translate(1317.76 810.49) scale(1.14 1)"><tspan class="cls-1"><tspan x="0" y="0">+time</tspan></tspan><tspan class="cls-1" x="15.18" y="43.2">(</tspan><tspan class="cls-22" x="27.56" y="43.2">▲</tspan><tspan class="cls-1" x="63.19" y="43.2">)</tspan></text><text id="help-c" class="cls-11" transform="translate(1764.83 811.45) scale(1.17 1)"><tspan x="0" y="0">CO</tspan><tspan class="cls-56" x="52.82" y="0">L</tspan><tspan x="70.8" y="0">OR</tspan><tspan x="39.21" y="41.98">(c)</tspan></text><text id="help-down" class="cls-37" transform="translate(1553.37 810.78) scale(1.21 1)"><tspan class="cls-1"><tspan x="0" y="0">-time</tspan></tspan><tspan class="cls-1" x="10.68" y="43.2">(</tspan><tspan class="cls-21" x="23.06" y="43.2">▼</tspan><tspan class="cls-1" x="58.69" y="43.2">)</tspan></text><text id="help-h" class="cls-6" transform="translate(193.02 515.3) scale(.99 1)"><tspan x="0" y="0">HELP (h)</tspan></text></g><g id="pan-background"><rect id="black" width="2133" height="1106"/></g><g id="pan-main"><path id="comp-main" class="cls-43" d="M2100,26H28V1079h237.74l81.26-144,153,51-72,93h94.6l163.4-180H1735v-139H671l-160,212-156-54L666.27,361.31c.48-.86,.73-1.83,.73-2.81v-85.1c0-3.04-2.35-5.56-5.38-5.78l-31.23-2.23c-3.03-.22-5.38-2.74-5.38-5.78v-73.81c0-3.2,2.6-5.8,5.8-5.8h424.91c2.04,0,3.94,1.08,4.98,2.83l25.63,43.1c1.04,1.76,2.94,2.83,4.98,2.83h1007.7V921H711v6h1391V26h-2ZM68,1068h-19V38h19V1068Z"/><path id="bar-purple" class="cls-16" d="M2103,26c-.33,300.33-.67,600.67-1,901"/></g><g id="grpClickable"><path id="clickable-top" class="cls-59" d="M28.98,237H625.98v-50.02c0-3.2,2.6-5.8,5.8-5.8h424.91c2.04,0,3.94,1.08,4.98,2.83l25.63,43.1c1.04,1.76,2.94,2.83,4.98,2.83h1007.2V27.18H28.98V237Z"/><path id="clickable-left" class="cls-59" d="M29.59,237.3l-.61,842.88h237.74L667.26,362.49l-2.57-90.6c-.05-1.79-1.37-3.3-3.15-3.57l-33.99-5.29c-.9-.14-1.57-.91-1.59-1.82l-.37-23.9H29.59Z"/><polygon id="clickable-bottom" class="cls-59" points="652.02 945 531.5 1078.85 531.5 1089 2102.5 1089 2102.5 945 652.02 945"/></g><g id="dot-green"><g id="Mode"><line id="dot" class="cls-39" x1="1671.31" y1="905.67" x2="1671.31" y2="917"/><line id="dot-2" class="cls-39" x1="1738.8" y1="905.87" x2="1738.8" y2="917.2"/><line id="dot-3" class="cls-39" x1="1700.8" y1="930.87" x2="1700.8" y2="942.2"/><line id="dot-4" class="cls-39" x1="1517.38" y1="905.88" x2="1517.38" y2="917.21"/><line id="dot-5" class="cls-39" x1="1451.06" y1="905.59" x2="1451.06" y2="916.93"/><line id="dot-6" class="cls-39" x1="1290.05" y1="905.26" x2="1290.05" y2="916.6"/><line id="dot-7" class="cls-39" x1="1222.09" y1="905.18" x2="1222.09" y2="916.51"/><line id="dot-8" class="cls-39" x1="1067.77" y1="905.01" x2="1067.77" y2="916.35"/><line id="dot-9" class="cls-39" x1="1003.77" y1="905.01" x2="1003.77" y2="916.35"/><line id="dot-10" class="cls-39" x1="1483.77" y1="931.01" x2="1483.77" y2="942.35"/><line id="dot-11" class="cls-39" x1="1256.29" y1="930.98" x2="1256.29" y2="942.31"/><line id="dot-12" class="cls-39" x1="1030.83" y1="931.35" x2="1030.83" y2="942.68"/><line id="dot-13" class="cls-39" x1="697.29" y1="905.44" x2="697.29" y2="916.77"/><line id="dot-14" class="cls-39" x1="697.29" y1="931.44" x2="697.29" y2="942.77"/><line id="dot-15" class="cls-39" x1="751.92" y1="738.8" x2="751.92" y2="750.14"/><line id="dot-16" class="cls-39" x1="662.92" y1="739.8" x2="662.92" y2="751.14"/><g id="dots_x2"><line id="dl" class="cls-39" x1="845.65" y1="932.34" x2="845.65" y2="943.67"/><line id="du" class="cls-39" x1="845.65" y1="905.34" x2="845.65" y2="916.67"/></g><g id="dots_x2-2"><line id="dl-2" class="cls-39" x1="2075.89" y1="932.7" x2="2075.89" y2="944.04"/><line id="du-2" class="cls-39" x1="2075.89" y1="905.7" x2="2075.89" y2="917.04"/></g><g id="dots_x3"><line id="dot-17" class="cls-39" x1="1901.31" y1="906.41" x2="1901.31" y2="917.75"/><line id="dot-18" class="cls-39" x1="1968.8" y1="906.61" x2="1968.8" y2="917.95"/><line id="dot-19" class="cls-39" x1="1930.8" y1="931.61" x2="1930.8" y2="942.95"/></g></g><g id="Slash"><line id="dot-20" class="cls-39" x1="506.3" y1="964.04" x2="513.49" y2="955.28"/><line id="dot-21" class="cls-39" x1="490.39" y1="988.19" x2="483.41" y2="997.12"/><line id="dot-22" class="cls-39" x1="350.75" y1="944.76" x2="345.05" y2="954.56"/><line id="dot-23" class="cls-39" x1="371.74" y1="906.76" x2="366.05" y2="916.56"/><line id="dot-24" class="cls-39" x1="673.08" y1="377.4" x2="673.08" y2="388.73"/><line id="dot-25" class="cls-39" x1="751.71" y1="377.42" x2="751.71" y2="388.75"/></g><g id="Top"><line id="dot-26" class="cls-39" x1="1244.93" y1="10.36" x2="1244.93" y2="21.7"/><line id="dot-27" class="cls-39" x1="1267.93" y1="10.36" x2="1267.93" y2="21.7"/><line id="dot-28" class="cls-39" x1="1404.63" y1="10.36" x2="1404.63" y2="21.7"/><line id="dot-29" class="cls-39" x1="1427.63" y1="10.36" x2="1427.63" y2="21.7"/><line id="dot-30" class="cls-39" x1="1074.49" y1="10.36" x2="1074.49" y2="21.7"/><line id="dot-31" class="cls-39" x1="1097.49" y1="10.36" x2="1097.49" y2="21.7"/><line id="dot-32" class="cls-39" x1="908.59" y1="10.36" x2="908.59" y2="21.7"/><line id="dot-33" class="cls-39" x1="931.59" y1="10.36" x2="931.59" y2="21.7"/><line id="dot-34" class="cls-39" x1="1759.17" y1="10.77" x2="1759.17" y2="22.1"/><line id="dot-35" class="cls-39" x1="1906.62" y1="10.77" x2="1906.62" y2="22.1"/><line id="dot-36" class="cls-39" x1="1929.62" y1="10.77" x2="1929.62" y2="22.1"/><line id="dot-37" class="cls-39" x1="2066.31" y1="10.77" x2="2066.31" y2="22.1"/><line id="dot-38" class="cls-39" x1="2089.31" y1="10.77" x2="2089.31" y2="22.1"/><line id="dot-39" class="cls-39" x1="1736.17" y1="10.77" x2="1736.17" y2="22.1"/><line id="dot-40" class="cls-39" x1="1570.27" y1="10.77" x2="1570.27" y2="22.1"/><line id="dot-41" class="cls-39" x1="1593.27" y1="10.77" x2="1593.27" y2="22.1"/><line id="dot-42" class="cls-39" x1="86.46" y1="10.1" x2="86.46" y2="21.43"/><line id="dot-43" class="cls-39" x1="109.46" y1="10.1" x2="109.46" y2="21.43"/><line id="dot-44" class="cls-39" x1="441.01" y1="10.5" x2="441.01" y2="21.84"/><line id="dot-45" class="cls-39" x1="588.45" y1="10.5" x2="588.45" y2="21.84"/><line id="dot-46" class="cls-39" x1="611.45" y1="10.5" x2="611.45" y2="21.84"/><line id="dot-47" class="cls-39" x1="748.14" y1="10.5" x2="748.14" y2="21.84"/><line id="dot-48" class="cls-39" x1="771.14" y1="10.5" x2="771.14" y2="21.84"/><line id="dot-49" class="cls-39" x1="418.01" y1="10.5" x2="418.01" y2="21.84"/><line id="dot-50" class="cls-39" x1="252.1" y1="10.5" x2="252.1" y2="21.84"/><line id="dot-51" class="cls-39" x1="275.1" y1="10.5" x2="275.1" y2="21.84"/></g><g id="Left"><line id="dot-52" class="cls-39" x1="12.02" y1="756.45" x2="23.36" y2="756.45"/><line id="dot-53" class="cls-39" x1="11.9" y1="859.08" x2="23.24" y2="859.08"/><line id="dot-54" class="cls-39" x1="11.95" y1="962.06" x2="23.29" y2="962.06"/><line id="dot-55" class="cls-39" x1="12.01" y1="1070.15" x2="23.34" y2="1070.15"/><line id="dot-56" class="cls-39" x1="12.83" y1="447.75" x2="24.16" y2="447.75"/><line id="dot-57" class="cls-39" x1="12.71" y1="550.37" x2="24.04" y2="550.37"/><line id="dot-58" class="cls-39" x1="12.76" y1="653.35" x2="24.09" y2="653.35"/><line id="dot-59" class="cls-39" x1="12.47" y1="344.64" x2="23.81" y2="344.64"/><line id="dot-60" class="cls-39" x1="12.54" y1="139.03" x2="23.88" y2="139.03"/><line id="dot-61" class="cls-39" x1="12.43" y1="241.65" x2="23.76" y2="241.65"/><line id="dot-62" class="cls-39" x1="13.28" y1="34.93" x2="24.61" y2="34.93"/></g><g id="Bottom"><line id="dot-63" class="cls-39" x1="86.36" y1="1083.46" x2="86.36" y2="1094.79"/><line id="dot-64" class="cls-39" x1="109.36" y1="1083.46" x2="109.36" y2="1094.79"/><line id="dot-65" class="cls-39" x1="252" y1="1083.86" x2="252" y2="1095.2"/><line id="dot-66" class="cls-39" x1="275" y1="1083.86" x2="275" y2="1095.2"/><line id="dot-67" class="cls-39" x1="416.08" y1="1085.21" x2="416.08" y2="1096.54"/><line id="dot-68" class="cls-39" x1="439.08" y1="1085.21" x2="439.08" y2="1096.54"/></g></g><g id="dot-black"><g id="Upper"><line id="tic" class="cls-41" x1="1416.31" y1="32.12" x2="1416.31" y2="43.46"/><line id="tic-2" class="cls-41" x1="1256.63" y1="32.12" x2="1256.63" y2="43.46"/><line id="tic-3" class="cls-41" x1="1086.67" y1="32.12" x2="1086.67" y2="43.46"/><line id="tic-4" class="cls-41" x1="919.99" y1="32.12" x2="919.99" y2="43.46"/><line id="tic-5" class="cls-41" x1="761.32" y1="32.12" x2="761.32" y2="43.46"/><line id="tic-6" class="cls-41" x1="599.64" y1="32.12" x2="599.64" y2="43.46"/><line id="tic-7" class="cls-41" x1="430.43" y1="32.12" x2="430.43" y2="43.46"/><line id="tic-8" class="cls-41" x1="263.76" y1="32.12" x2="263.76" y2="43.46"/><line id="tic-9" class="cls-41" x1="98.08" y1="32.12" x2="98.08" y2="43.46"/><line id="tic-10" class="cls-41" x1="1748.97" y1="32.12" x2="1748.97" y2="43.46"/><line id="tic-11" class="cls-41" x1="1582.29" y1="32.12" x2="1582.29" y2="43.46"/><line id="tic-12" class="cls-41" x1="2079" y1="32.12" x2="2079" y2="43.46"/><line id="tic-13" class="cls-41" x1="1919.32" y1="32.12" x2="1919.32" y2="43.46"/></g><g id="Left-2"><line id="h-tic" class="cls-41" x1="76.92" y1="138.65" x2="88.09" y2="138.65"/><line id="h-tic-2" class="cls-41" x1="76.84" y1="242.74" x2="88.17" y2="242.74"/><line id="h-tic-3" class="cls-41" x1="76.92" y1="344.43" x2="88.09" y2="344.43"/><line id="h-tic-4" class="cls-41" x1="76.84" y1="448.52" x2="88.17" y2="448.52"/><line id="h-tic-5" class="cls-41" x1="77" y1="550.33" x2="88.17" y2="550.33"/><line id="h-tic-6" class="cls-41" x1="76.92" y1="654.42" x2="88.25" y2="654.42"/><line id="h-tic-7" class="cls-41" x1="77" y1="756.11" x2="88.17" y2="756.11"/><line id="h-tic-8" class="cls-41" x1="76.92" y1="860.21" x2="88.25" y2="860.21"/><line id="h-tic-9" class="cls-41" x1="77.31" y1="961.91" x2="88.64" y2="961.91"/></g><g id="Bottom-2"><line id="tic-14" class="cls-41" x1="98.38" y1="1061.91" x2="98.38" y2="1073.24"/><line id="tic-15" class="cls-41" x1="264.84" y1="1062.4" x2="264.84" y2="1073.74"/></g><g id="Slash-2"><line id="h-tic-10" class="cls-41" x1="330.26" y1="930.53" x2="340.85" y2="934.59"/><line id="h-tic-11" class="cls-41" x1="342.5" y1="909.34" x2="353.09" y2="913.4"/><line id="h-tic-12" class="cls-41" x1="502.5" y1="989.34" x2="513.09" y2="993.4"/><line id="h-tic-13" class="cls-41" x1="516.5" y1="971.34" x2="527.09" y2="975.4"/></g><g id="Right"><line id="h-tic-14" class="cls-41" x1="2088.9" y1="135.16" x2="2100.24" y2="135.16"/></g><g id="Border"><line id="tic-16" class="cls-41" x1="1783.96" y1="215.06" x2="1783.96" y2="226.39"/><line id="tic-17" class="cls-41" x1="1495.22" y1="215.07" x2="1495.22" y2="226.41"/><line id="tic-18" class="cls-41" x1="1097.06" y1="213.71" x2="1097.06" y2="225.04"/><line id="tic-19" class="cls-41" x1="1058.06" y1="168.71" x2="1058.06" y2="180.04"/><line id="tic-20" class="cls-41" x1="670.76" y1="164.9" x2="670.76" y2="176.23"/><line id="tic-21" class="cls-41" x1="627.76" y1="164.9" x2="627.76" y2="176.23"/><g id="double_tic"><line id="tic-22" class="cls-41" x1="614" y1="251.9" x2="614" y2="263.23"/><line id="tic-23" class="cls-41" x1="619.76" y1="251.9" x2="619.76" y2="263.23"/></g><g id="double_tic-2"><line id="tic-24" class="cls-41" x1="604" y1="193.3" x2="604" y2="204.64"/><line id="tic-25" class="cls-41" x1="610.02" y1="193.3" x2="610.02" y2="204.64"/></g><g id="double_tic-3"><line id="tic-26" class="cls-41" x1="653" y1="351.28" x2="653" y2="362.62"/><line id="tic-27" class="cls-41" x1="658.18" y1="351.28" x2="658.18" y2="362.62"/></g><g id="double_tic-4"><line id="tic-28" class="cls-41" x1="803" y1="773.7" x2="803" y2="785.04"/><line id="tic-29" class="cls-41" x1="808.27" y1="773.7" x2="808.27" y2="785.04"/></g><g id="double_tic-5"><line id="tic-30" class="cls-41" x1="1725" y1="775.19" x2="1725" y2="786.52"/><line id="tic-31" class="cls-41" x1="1730.37" y1="775.19" x2="1730.37" y2="786.52"/></g><g id="double_tic-6"><line id="tic-32" class="cls-41" x1="1725" y1="883.54" x2="1725" y2="894.87"/><line id="tic-33" class="cls-41" x1="1730.32" y1="883.54" x2="1730.32" y2="894.87"/></g><line id="tic-34" class="cls-41" x1="677.33" y1="770.7" x2="677.33" y2="782.03"/></g><g id="Status"><g id="s4"><line id="tic-35" class="cls-41" x1="1675.77" y1="873.43" x2="1675.77" y2="884.76"/><line id="tic-36" class="cls-41" x1="1517.77" y1="873.43" x2="1517.77" y2="884.76"/></g><g id="s3"><line id="tic-37" class="cls-41" x1="1451.4" y1="873.29" x2="1451.4" y2="884.62"/><line id="tic-38" class="cls-41" x1="1293.4" y1="873.29" x2="1293.4" y2="884.62"/></g><g id="s2"><line id="tic-39" class="cls-41" x1="1226.1" y1="873.6" x2="1226.1" y2="884.94"/><line id="tic-40" class="cls-41" x1="1068.1" y1="873.6" x2="1068.1" y2="884.94"/></g><g id="s1"><line id="tic-41" class="cls-41" x1="1001" y1="873.36" x2="1001" y2="884.69"/><line id="tic-42" class="cls-41" x1="843" y1="873.36" x2="843" y2="884.69"/></g></g></g><g id="dot-amber"><g id="dot-emergency"><line id="dot-emergency2" class="cls-19" x1="1928.37" y1="771.11" x2="1928.37" y2="790.57"/><line id="dot-emergency1" class="cls-19" x1="1936.8" y1="771.11" x2="1936.8" y2="790.57"/></g><g id="dot-racing"><line id="dot-racing2" class="cls-40" x1="1708" y1="771.56" x2="1708" y2="791.03"/><line id="dot-racing1" class="cls-40" x1="1716.43" y1="771.56" x2="1716.43" y2="791.03"/></g><g id="dot-normal"><line id="dot-normal2" class="cls-19" x1="1483.36" y1="771.56" x2="1483.36" y2="791.03"/><line id="dot-normal1" class="cls-19" x1="1491.79" y1="771.56" x2="1491.79" y2="791.03"/></g><g id="dot-slow"><line id="dot-slow2" class="cls-19" x1="1258.72" y1="771.56" x2="1258.72" y2="791.03"/><line id="dot-slow1" class="cls-19" x1="1267.15" y1="771.56" x2="1267.15" y2="791.03"/></g><g id="dot-stop"><line id="dot-stop2" class="cls-19" x1="1034.08" y1="771.56" x2="1034.08" y2="791.03"/><line id="dot-stop1" class="cls-19" x1="1042.51" y1="771.56" x2="1042.51" y2="791.03"/></g><g id="dot-mode0"><line id="dot-mode0b" class="cls-19" x1="816.48" y1="769.94" x2="816.48" y2="789.41"/><line id="dot-mode0a" class="cls-19" x1="824.91" y1="769.94" x2="824.91" y2="789.41"/></g></g><g id="pan-mode"><g id="pan-emergency"><rect id="border-emergency" class="cls-18" x="1748.78" y="778.89" width="165" height="90.25" rx="5.12" ry="5.12"/><text id="en-danger" class="cls-13" transform="translate(1753.58 824.1) scale(.71 1)"><tspan class="cls-61" x="0" y="0">D</tspan><tspan class="cls-65" x="34.54" y="0">ANGER</tspan></text><text id="en-emergency" class="cls-9" transform="translate(1753.46 862.36) scale(.59 1)"><tspan class="cls-66" x="0" y="0">EME</tspan><tspan class="cls-63" x="86.95" y="0">R</tspan><tspan class="cls-66" x="115.19" y="0">GENCY</tspan></text></g><g id="pan-racing"><rect id="bkg-racing" x="1514" y="778.57" width="165" height="90.25" rx="5.12" ry="5.12"/><rect id="border-racing" class="cls-17" x="1514" y="778.57" width="165" height="90.25" rx="5.12" ry="5.12"/><text id="en-racing" class="cls-8" transform="translate(1523 821.46) scale(.8 1)"><tspan class="cls-67" x="0" y="0">R</tspan><tspan class="cls-58" x="32.88" y="0">A</tspan><tspan class="cls-67" x="64.38" y="0">CING</tspan></text><rect id="bar-racing" class="cls-46" x="1519" y="832" width="154" height="27" rx="4.26" ry="4.26"/></g><g id="pan-normal"><rect id="bkg-normal" x="1289.36" y="778.57" width="165" height="90.25" rx="5.12" ry="5.12"/><rect id="border-normal" class="cls-17" x="1289.36" y="778.57" width="165" height="90.25" rx="5.12" ry="5.12"/><rect id="bar-normal" class="cls-46" x="1295" y="832" width="154" height="27" rx="4.26" ry="4.26"/><text id="en-normal" class="cls-4" transform="translate(1299.29 821.99) scale(.74 1)"><tspan x="0" y="0">NORMAL</tspan></text></g><g id="pan-slow"><rect id="bkg-slow" x="1064.72" y="778.57" width="165" height="90.25" rx="5.12" ry="5.12"/><rect id="border-slow" class="cls-17" x="1064.72" y="778.57" width="165" height="90.25" rx="5.12" ry="5.12"/><text id="en-slow" class="cls-12" transform="translate(1083.04 821.25)"><tspan class="cls-64" x="0" y="0">S</tspan><tspan class="cls-60" x="29.8" y="0">L</tspan><tspan class="cls-70" x="53.76" y="0">O</tspan><tspan class="cls-64" x="90.11" y="0">W</tspan></text><rect id="bar-slow" class="cls-46" x="1070" y="832" width="154" height="27" rx="4.26" ry="4.26"/></g><g id="pan-stop"><rect id="bkg-stop" x="840.08" y="778.57" width="165" height="90.25" rx="5.12" ry="5.12"/><rect id="border-stop" class="cls-17" x="840.08" y="778.57" width="165" height="90.25" rx="5.12" ry="5.12"/><rect id="bar-stop" class="cls-46" x="846" y="832" width="154" height="27" rx="4.26" ry="4.26"/><text id="en-stop" class="cls-7" transform="translate(855.08 817.77) scale(1.16 1)"><tspan class="cls-68" x="0" y="0">S</tspan><tspan class="cls-62" x="28.34" y="0">T</tspan><tspan class="cls-69" x="51.54" y="0">OP</tspan></text></g></g><g id="pan-clock"><path id="border-clock" class="cls-20" d="M667.97,361.22l-1.26-176.37c-.02-2.67,2.15-4.85,4.82-4.84l385.78,.98c1.68,0,3.23,.88,4.1,2.31l25.84,42.5c.87,1.43,2.43,2.31,4.11,2.31l1002.43,.65c2.65,0,4.8,2.15,4.81,4.81l.41,522.51c0,2.66-2.15,4.82-4.81,4.81l-1318.4-.89c-2.65,0-4.79-2.14-4.81-4.79l-1.95-384.43c-.01-2.65-2.16-4.79-4.81-4.79h-91.44c-2.64,0-4.79-2.13-4.81-4.78Z"/><g id="textgroup-clock-sys"><text id="en-millis-sys" class="cls-31" transform="translate(1587.5 732) scale(.58 1)"><tspan x="0" y="0">88</tspan></text><text id="en-second-sys" class="cls-24" transform="translate(1214.5 732.02) scale(.63 1)"><tspan x="0" y="0">88</tspan></text><text id="en-minute-sys" class="cls-25" transform="translate(787.59 731.66) scale(.67 1)"><tspan x="0" y="0">88</tspan></text><g id="en-colon1-sys"><line id="colon1b-sys" class="cls-26" x1="1177.62" y1="399.68" x2="1177.62" y2="426.58"/><line id="colon1a-sys" class="cls-26" x1="1180.29" y1="608.87" x2="1180.29" y2="635.77"/></g></g><g id="textgroup-clock"><g id="en-colon2"><line id="colon2b" class="cls-33" x1="1455.1" y1="642.54" x2="1455.1" y2="666"/><line id="colon2a" class="cls-33" x1="1454.93" y1="504.28" x2="1454.93" y2="527.74"/></g><text id="en-millis" class="cls-27" transform="translate(1493 741.83) scale(.66 1)"><tspan x="0" y="0">87</tspan></text><text id="en-second" class="cls-23" transform="translate(1043 739) scale(.66 1)"><tspan x="0" y="0">59</tspan></text><text id="en-minute" class="cls-35" transform="translate(794.87 739.54) scale(.71 1)"><tspan x="0" y="0">4</tspan></text><g id="en-colon1"><line id="colon1b" class="cls-26" x1="1006.08" y1="397.48" x2="1006.08" y2="424.68"/><line id="colon1a" class="cls-26" x1="1008.01" y1="608.98" x2="1008.01" y2="636.18"/></g></g><g id="textgroup-active-time"><text id="en-active-time" class="cls-5" transform="translate(1076.46 272.04) scale(.94 1)"><tspan class="cls-49" x="0" y="0">A</tspan><tspan class="cls-45" x="24.82" y="0">CTIVE TIME REMAINING:</tspan></text><text id="jp-active-time2" class="cls-30" transform="translate(668 348.05) scale(.95 1)"><tspan x="0" y="0">あと</tspan></text><text id="jp-active-time1" class="cls-36" transform="translate(676.91 266.95) scale(.76 1)"><tspan x="0" y="0">活動限界</tspan></text><text class="cls-32" transform="translate(929.21 266.95) scale(.8 1)"><tspan x="0" y="0">まで</tspan></text></g></g><g id="pan-power"><g id="pan-external"><g id="dot-green-external"><line id="dot2-external" class="cls-38" x1="1781.67" y1="738" x2="1781.67" y2="746.13"/><line id="dot1-external" class="cls-38" x1="2066.01" y1="738" x2="2066.01" y2="746.13"/></g><rect id="strip-external" class="cls-42" x="2001" y="568" width="65" height="163"/><rect id="border-external" class="cls-17" x="1780" y="566" width="287" height="166"/><text id="en-external" class="cls-10" transform="translate(1791.07 723.89) scale(.7 1)"><tspan x="0" y="0">EXTERNAL</tspan></text><text id="jp-external" class="cls-28" transform="translate(1785.72 668.34) scale(.95 1)"><tspan x="0" y="0">外部</tspan></text></g><g id="pan-internal"><g id="dot-green-internal"><line id="dot2-internal" class="cls-38" x1="1781.06" y1="271.45" x2="1781.06" y2="279.58"/><line id="dot1-internal" class="cls-38" x1="2066.41" y1="271.45" x2="2066.41" y2="279.58"/></g><rect id="strip-internal" class="cls-55" x="2001" y="282" width="65" height="163"/><rect id="border-internal" class="cls-17" x="1781" y="281" width="286" height="166"/><text id="en-internal" class="cls-14" transform="translate(1791.82 439.35) scale(.79 1)"><tspan x="0" y="0">INTERNAL</tspan></text><text id="jp-internal" class="cls-29" transform="translate(1784.75 383.58) scale(.98 1)"><tspan x="0" y="0">内部</tspan></text></g><g id="pan-system"><g id="dot-green-system"><line id="dot4-system" class="cls-38" x1="1781.03" y1="557.66" x2="1781.03" y2="563.09"/><line id="dot3-system" class="cls-38" x1="2065.38" y1="556.66" x2="2065.38" y2="562.09"/><line id="dot2-system" class="cls-38" x1="1781.24" y1="451.11" x2="1781.24" y2="456.14"/><line id="dot1-system" class="cls-38" x1="2065.59" y1="452.11" x2="2065.59" y2="457.14"/></g><rect id="border-system" class="cls-17" x="1780" y="460" width="287" height="93"/><text id="en-system" class="cls-2" transform="translate(1795 545.71) scale(.57 1)"><tspan class="cls-47" x="0" y="0">MAIN ENE</tspan><tspan class="cls-53" x="141.3" y="0">R</tspan><tspan class="cls-50" x="161.13" y="0">GY SUPP</tspan><tspan class="cls-48" x="288.6" y="0">L</tspan><tspan class="cls-47" x="302.19" y="0">Y S</tspan><tspan class="cls-52" x="347.34" y="0">Y</tspan><tspan class="cls-47" x="364.23" y="0">STEM</tspan></text><text id="jp-system" class="cls-34" transform="translate(1787.75 513.77) scale(.56 1)"><tspan x="0" y="0">主電源供給 システム</tspan></text></g></g></g></svg>