<?xml version="1.0" encoding="UTF-8"?><svg id="Layer_2" xmlns="http://www.w3.org/2000/svg" xmlns:xlink="http://www.w3.org/1999/xlink" viewBox="0 0 128 128"><defs><style>.cls-1{fill:none;}.cls-2{fill:url(#New_Pattern);}.cls-3{fill:url(#linear-gradient);}.cls-4,.cls-5,.cls-6{fill:#f7931e;}.cls-7{fill:red;}.cls-5{font-family:True-LCD, 'True LCD';font-size:55.88px;letter-spacing:-.02em;}.cls-8{letter-spacing:-.04em;}.cls-9{fill:url(#New_Pattern-2);}.cls-6{font-family:ArialRoundedMTBold, 'Arial Rounded MT Bold';font-size:18.65px;}.cls-10{letter-spacing:-.02em;}</style><linearGradient id="linear-gradient" x1="0" y1="64" x2="128" y2="64" gradientUnits="userSpaceOnUse"><stop offset="0" stop-color="#c1272d"/><stop offset=".4" stop-color="#fbae17"/><stop offset="1" stop-color="#006837"/></linearGradient><pattern id="New_Pattern" x="0" y="0" width="100" height="96" patternTransform="translate(-8318.51 -8983.64) rotate(-49.04) scale(.2 .22) skewX(10.37)" patternUnits="userSpaceOnUse" viewBox="0 0 100 96"><g><rect class="cls-1" width="100" height="96"/><g><rect class="cls-7" x="0" y="64" width="100" height="17"/><rect x="0" y="81" width="100" height="15"/></g><g><rect class="cls-7" x="0" y="32" width="100" height="17"/><rect x="0" y="49" width="100" height="15"/></g><g><rect class="cls-7" x="0" y="0" width="100" height="17"/><rect x="0" y="17" width="100" height="15"/></g></g></pattern><pattern id="New_Pattern-2" patternTransform="translate(-8323.11 -8990.31) rotate(-50.19) scale(.21 .22) skewX(7.96)" xlink:href="#New_Pattern"/></defs><g id="favicon"><rect id="icon-background" class="cls-3" width="128" height="128" rx="20.41" ry="20.41"/><g id="icon-clock"><path id="icon-main" d="M7.71,104.43L16.2,28.94c.01-.1,.02-.21,.02-.31l-.05-6.88c0-.91-.52-1.73-1.33-2.16h0c-.81-.43-1.32-1.26-1.33-2.16l-.03-4.64c0-1.37,1.11-2.49,2.51-2.49l34.89-.18c1.09,0,2.07,.68,2.41,1.7l.5,1.5c.34,1.01,1.3,1.7,2.39,1.7l60.33,.18c1.38,0,2.51,1.1,2.51,2.46l.31,60.02c0,1.38-1.14,1.72-2.55,1.7H31.49c-.78,0-1.52,.34-2.01,.94l-11.3,26.29c-.5,.62-1.27,.97-2.07,.94l-5.98-.36c-1.47-.05-2.59-1.33-2.41-2.77Z"/><text id="icon-minute" class="cls-5" transform="translate(21.33 72.45) scale(.78 1)"><tspan x="0" y="0">0</tspan></text><path id="icon-strip2" class="cls-2" d="M115.76,17.68h-5.86c-.87,0-1.57,.79-1.57,1.77v20.46c0,.98,.7,1.77,1.57,1.77h5.86c.87,0,1.57-.79,1.57-1.77V19.45c0-.98-.7-1.77-1.57-1.77Z"/><path id="icon-strip1" class="cls-9" d="M116.2,49.68h-6.74c-.62,0-1.13,.6-1.13,1.33v22.34c0,.73,.51,1.33,1.13,1.33h6.74c.62,0,1.13-.6,1.13-1.33v-22.34c0-.73-.51-1.33-1.13-1.33Z"/><text id="icon-second" class="cls-5" transform="translate(55.09 72.67) scale(.78 1)"><tspan x="0" y="0">00</tspan></text><g id="icon-colon"><rect class="cls-4" x="46.33" y="37.68" width="5" height="5"/><rect class="cls-4" x="46.33" y="55.68" width="5" height="5"/></g></g><g id="icon-racing"><rect id="border-racing" x="33.42" y="84.68" width="68.92" height="34.35" rx="3.02" ry="3.02"/><rect id="bar-racing" class="cls-7" x="35.51" y="105.01" width="64.32" height="10.27" rx="2.24" ry="2.24"/><text id="en-racing" class="cls-6" transform="translate(36.18 101) scale(.88 1)"><tspan class="cls-10" x="0" y="0">R</tspan><tspan class="cls-8" x="13.09" y="0">A</tspan><tspan class="cls-10" x="25.73" y="0">CING</tspan></text></g></g></svg>