<?xml version="1.0" encoding="UTF-8"?><svg id="Layer_2" xmlns="http://www.w3.org/2000/svg" xmlns:xlink="http://www.w3.org/1999/xlink" viewBox="0 0 128 128"><defs><style>.cls-1{fill:none;}.cls-2{fill:url(#New_Pattern);}.cls-3{fill:url(#linear-gradient);}.cls-4{fill:red;}.cls-5{font-family:True-LCD, 'True LCD';font-size:55.88px;letter-spacing:-.02em;}.cls-5,.cls-6{fill:#f7931e;}.cls-7{letter-spacing:-.04em;}.cls-8{fill:url(#New_Pattern-2);}.cls-6{font-family:ArialRoundedMTBold, 'Arial Rounded MT Bold';font-size:18.65px;}.cls-9{stroke:#f15a24;stroke-miterlimit:10;stroke-width:2px;}.cls-10{letter-spacing:-.02em;}</style><linearGradient id="linear-gradient" x1="0" y1="64" x2="128" y2="64" gradientUnits="userSpaceOnUse"><stop offset="0" stop-color="#c1272d"/><stop offset=".4" stop-color="#fbae17"/><stop offset="1" stop-color="#006837"/></linearGradient><pattern id="New_Pattern" x="0" y="0" width="100" height="96" patternTransform="translate(-7830.62 -9014.87) rotate(-45.6) scale(.23 .25) skewX(17.38)" patternUnits="userSpaceOnUse" viewBox="0 0 100 96"><g><rect class="cls-1" width="100" height="96"/><g><rect class="cls-4" x="0" y="64" width="100" height="17"/><rect x="0" y="81" width="100" height="15"/></g><g><rect class="cls-4" x="0" y="32" width="100" height="17"/><rect x="0" y="49" width="100" height="15"/></g><g><rect class="cls-4" x="0" y="0" width="100" height="17"/><rect x="0" y="17" width="100" height="15"/></g></g></pattern><pattern id="New_Pattern-2" patternTransform="translate(-7836.52 -9014.25) rotate(-45.6) scale(.23 .25) skewX(17.38)" xlink:href="#New_Pattern"/></defs><g id="Artboard2"><g id="icon"><rect id="icon_background" class="cls-3" x="0" width="128" height="128" rx="20.41" ry="20.41"/><path d="M7.71,107.43L17.03,28.94c.01-.1,.02-.21,.02-.31l-.05-6.88c0-.91-.51-1.73-1.3-2.16h0c-.8-.43-1.3-1.26-1.3-2.16l-.03-4.64c0-1.37,1.09-2.49,2.46-2.49l34.25-.18c1.07,0,2.03,.68,2.36,1.7l.49,1.5c.33,1.01,1.28,1.7,2.34,1.7l59.22,.18c1.36,0,2.46,1.1,2.47,2.46l.3,60.02c0,1.38-1.12,1.72-2.5,1.7H46.97c-.77,0-1.5,.34-1.97,.94l-23.1,29.29c-.49,.62-1.24,.97-2.03,.94l-9.8-.36c-1.45-.05-2.54-1.33-2.37-2.77Z"/><text id="en-second" class="cls-5" transform="translate(22.33 72.45) scale(.78 1)"><tspan x="0" y="0">700</tspan></text><rect id="strip-internal" class="cls-2" x="106.33" y="17.68" width="11" height="26" rx="1.92" ry="1.92"/><rect id="strip-internal-2" class="cls-8" x="106.33" y="46.68" width="11" height="26" rx="1.38" ry="1.38"/><rect id="border-racing" class="cls-9" x="44.42" y="84.68" width="68.92" height="34.35" rx="5.12" ry="5.12"/><rect id="bar-racing" class="cls-4" x="46.51" y="105.01" width="64.32" height="10.27" rx="2.24" ry="2.24"/><text id="en-racing" class="cls-6" transform="translate(47.18 101) scale(.88 1)"><tspan class="cls-10" x="0" y="0">R</tspan><tspan class="cls-7" x="13.09" y="0">A</tspan><tspan class="cls-10" x="25.73" y="0">CING</tspan></text></g></g></svg>