<?xml version="1.0" encoding="UTF-8"?><svg id="Layer_2" xmlns="http://www.w3.org/2000/svg" xmlns:xlink="http://www.w3.org/1999/xlink" viewBox="0 0 2133 1106"><defs><style>.cls-1{fill:url(#New_Pattern-2);}.cls-1,.cls-2,.cls-3,.cls-4,.cls-5,.cls-6,.cls-7{stroke-width:0px;}.cls-8{font-size:30px;}.cls-8,.cls-9,.cls-10,.cls-11,.cls-12,.cls-13,.cls-14,.cls-15,.cls-16,.cls-17,.cls-18,.cls-19,.cls-20,.cls-21,.cls-22,.cls-23,.cls-24,.cls-25{fill:#f7931e;}.cls-8,.cls-9,.cls-10,.cls-11,.cls-12,.cls-13,.cls-17,.cls-18,.cls-21,.cls-22{font-family:ArialRoundedMT, 'Arial Rounded MT';}.cls-26{stroke:#7f47dd;stroke-width:3px;}.cls-26,.cls-2,.cls-27,.cls-28,.cls-29,.cls-30{fill:none;}.cls-26,.cls-31,.cls-32,.cls-33,.cls-34,.cls-27,.cls-28,.cls-29,.cls-30{stroke-miterlimit:10;}.cls-35{letter-spacing:-.07em;}.cls-9{font-size:48.94px;letter-spacing:-.02em;}.cls-10{font-size:42px;}.cls-36{letter-spacing:0em;}.cls-37{letter-spacing:-.12em;}.cls-31,.cls-32{fill:lime;stroke:lime;}.cls-31,.cls-32,.cls-33,.cls-34,.cls-29,.cls-30{stroke-width:4px;}.cls-32,.cls-33,.cls-29{stroke-linecap:round;}.cls-11{font-size:45.85px;}.cls-33{fill:#e78200;}.cls-33,.cls-28,.cls-29{stroke:#f7931e;}.cls-12{font-size:49px;}.cls-38{letter-spacing:-.1em;}.cls-39{letter-spacing:0em;}.cls-3{fill:url(#New_Pattern);}.cls-13{font-size:43.24px;}.cls-14{font-size:108.34px;letter-spacing:-.07em;}.cls-14,.cls-15,.cls-16,.cls-19,.cls-23,.cls-25{font-family:ZenAntique-Regular, 'Zen Antique';}.cls-40{letter-spacing:-.05em;}.cls-41{letter-spacing:-.03em;}.cls-15{font-size:107.48px;letter-spacing:-.07em;}.cls-34{stroke:#000;}.cls-27,.cls-28{stroke-width:2px;}.cls-27,.cls-30{stroke:#f15a24;}.cls-16{font-size:67.1px;letter-spacing:-.23em;}.cls-17,.cls-23{font-size:56px;}.cls-4{fill:url(#linear-gradient);opacity:.88;}.cls-18{font-size:48.21px;}.cls-42{letter-spacing:-.05em;}.cls-19{font-size:93.92px;letter-spacing:-.26em;}.cls-20{font-size:504.14px;letter-spacing:0em;}.cls-20,.cls-24{font-family:TrueLCDNGE, 'True LCD NGE';}.cls-21{font-size:51.86px;}.cls-43{letter-spacing:-.08em;}.cls-44{letter-spacing:-.06em;}.cls-45{letter-spacing:-.08em;}.cls-46{letter-spacing:-.03em;}.cls-47{letter-spacing:-.02em;}.cls-22{font-size:52px;letter-spacing:-.01em;}.cls-6{fill:#fff;opacity:0;}.cls-7{fill:red;}.cls-48{letter-spacing:-.02em;}.cls-49{letter-spacing:-.02em;}.cls-50{letter-spacing:-.02em;}.cls-51{letter-spacing:-.02em;}.cls-52{letter-spacing:-.02em;}.cls-23{letter-spacing:-.07em;}.cls-24{font-size:363.59px;letter-spacing:0em;}.cls-25{font-size:89.72px;letter-spacing:-.07em;}.cls-53{letter-spacing:-.03em;}</style><linearGradient id="linear-gradient" x1="28" y1="552.5" x2="2102" y2="552.5" gradientUnits="userSpaceOnUse"><stop offset="0" stop-color="#c1272d"/><stop offset=".4" stop-color="#fbae17"/><stop offset="1" stop-color="#006837"/></linearGradient><pattern id="New_Pattern" x="0" y="0" width="100" height="96" patternTransform="translate(7721.63 -10167.06) rotate(-47.29) scale(1.41 1.52) skewX(13.98)" patternUnits="userSpaceOnUse" viewBox="0 0 100 96"><rect class="cls-2" width="100" height="96"/><rect class="cls-7" x="0" y="64" width="100" height="17"/><rect class="cls-5" x="0" y="81" width="100" height="15"/><rect class="cls-7" x="0" y="32" width="100" height="17"/><rect class="cls-5" x="0" y="49" width="100" height="15"/><rect class="cls-7" x="0" y="0" width="100" height="17"/><rect class="cls-5" x="0" y="17" width="100" height="15"/></pattern><pattern id="New_Pattern-2" patternTransform="translate(7626.16 -10349.64) rotate(-47.29) scale(1.41 1.52) skewX(13.98)" xlink:href="#New_Pattern"/></defs><g id="eva-clock"><g id="pan-background"><rect id="black" class="cls-5" width="2133" height="1106"/></g><g id="pan-main"><path id="comp-main" class="cls-4" d="m2100,26H28v1053h237.74l81.26-144,153,51-72,93h94.6l163.4-180h1049v-139H671l-160,212-156-54,311.27-556.69c.48-.86.73-1.83.73-2.81v-85.1c0-3.04-2.35-5.56-5.38-5.78l-31.23-2.23c-3.03-.22-5.38-2.74-5.38-5.78v-73.81c0-3.2,2.6-5.8,5.8-5.8h424.91c2.04,0,3.94,1.08,4.98,2.83l25.63,43.1c1.04,1.76,2.94,2.83,4.98,2.83h1007.7v692.24H711v6h1391V26h-2ZM68,1068h-19V38h19v1030Z"/><path id="bar-purple" class="cls-26" d="m2103,26c-.33,300.33-.67,600.67-1,901"/></g><g id="grpClickable"><path id="clickable-top" class="cls-6" d="m28.98,237h597v-50.02c0-3.2,2.6-5.8,5.8-5.8h424.91c2.04,0,3.94,1.08,4.98,2.83l25.63,43.1c1.04,1.76,2.94,2.83,4.98,2.83h1007.2V27.18H28.98v209.82Z"/><path id="clickable-left" class="cls-6" d="m29.59,237.3l-.61,842.88h237.74l400.53-717.69-2.57-90.6c-.05-1.79-1.37-3.3-3.15-3.57l-33.99-5.29c-.9-.14-1.57-.91-1.59-1.82l-.37-23.9H29.59Z"/><polygon id="clickable-bottom" class="cls-6" points="652.02 945 531.5 1078.85 531.5 1089 2102.5 1089 2102.5 945 652.02 945"/></g><g id="dot-green"><g id="Mode"><line id="dot" class="cls-32" x1="1671.31" y1="905.67" x2="1671.31" y2="917"/><line id="dot-2" class="cls-32" x1="1738.8" y1="905.87" x2="1738.8" y2="917.2"/><line id="dot-3" class="cls-32" x1="1700.8" y1="930.87" x2="1700.8" y2="942.2"/><line id="dot-4" class="cls-32" x1="1517.38" y1="905.88" x2="1517.38" y2="917.21"/><line id="dot-5" class="cls-32" x1="1451.06" y1="905.59" x2="1451.06" y2="916.93"/><line id="dot-6" class="cls-32" x1="1290.05" y1="905.26" x2="1290.05" y2="916.6"/><line id="dot-7" class="cls-32" x1="1222.09" y1="905.18" x2="1222.09" y2="916.51"/><line id="dot-8" class="cls-32" x1="1067.77" y1="905.01" x2="1067.77" y2="916.35"/><line id="dot-9" class="cls-32" x1="1003.77" y1="905.01" x2="1003.77" y2="916.35"/><line id="dot-10" class="cls-32" x1="1483.77" y1="931.01" x2="1483.77" y2="942.35"/><line id="dot-11" class="cls-32" x1="1256.29" y1="930.98" x2="1256.29" y2="942.31"/><line id="dot-12" class="cls-32" x1="1030.83" y1="931.35" x2="1030.83" y2="942.68"/><line id="dot-13" class="cls-32" x1="697.29" y1="905.44" x2="697.29" y2="916.77"/><line id="dot-14" class="cls-32" x1="697.29" y1="931.44" x2="697.29" y2="942.77"/><line id="dot-15" class="cls-32" x1="751.92" y1="738.8" x2="751.92" y2="750.14"/><line id="dot-16" class="cls-32" x1="662.92" y1="739.8" x2="662.92" y2="751.14"/><g id="dots_x2"><line id="dl" class="cls-32" x1="845.65" y1="932.34" x2="845.65" y2="943.67"/><line id="du" class="cls-32" x1="845.65" y1="905.34" x2="845.65" y2="916.67"/></g><g id="dots_x2-2"><line id="dl-2" class="cls-32" x1="2075.89" y1="932.7" x2="2075.89" y2="944.04"/><line id="du-2" class="cls-32" x1="2075.89" y1="905.7" x2="2075.89" y2="917.04"/></g><g id="dots_x3"><line id="dot-17" class="cls-32" x1="1901.31" y1="906.41" x2="1901.31" y2="917.75"/><line id="dot-18" class="cls-32" x1="1968.8" y1="906.61" x2="1968.8" y2="917.95"/><line id="dot-19" class="cls-32" x1="1930.8" y1="931.61" x2="1930.8" y2="942.95"/></g></g><g id="Slash"><line id="dot-20" class="cls-32" x1="506.3" y1="964.04" x2="513.49" y2="955.28"/><line id="dot-21" class="cls-32" x1="490.39" y1="988.19" x2="483.41" y2="997.12"/><line id="dot-22" class="cls-32" x1="350.75" y1="944.76" x2="345.05" y2="954.56"/><line id="dot-23" class="cls-32" x1="371.74" y1="906.76" x2="366.05" y2="916.56"/><line id="dot-24" class="cls-32" x1="673.08" y1="377.4" x2="673.08" y2="388.73"/><line id="dot-25" class="cls-32" x1="751.71" y1="377.42" x2="751.71" y2="388.75"/></g><g id="Top"><line id="dot-26" class="cls-32" x1="1244.93" y1="10.36" x2="1244.93" y2="21.7"/><line id="dot-27" class="cls-32" x1="1267.93" y1="10.36" x2="1267.93" y2="21.7"/><line id="dot-28" class="cls-32" x1="1404.63" y1="10.36" x2="1404.63" y2="21.7"/><line id="dot-29" class="cls-32" x1="1427.63" y1="10.36" x2="1427.63" y2="21.7"/><line id="dot-30" class="cls-32" x1="1074.49" y1="10.36" x2="1074.49" y2="21.7"/><line id="dot-31" class="cls-32" x1="1097.49" y1="10.36" x2="1097.49" y2="21.7"/><line id="dot-32" class="cls-32" x1="908.59" y1="10.36" x2="908.59" y2="21.7"/><line id="dot-33" class="cls-32" x1="931.59" y1="10.36" x2="931.59" y2="21.7"/><line id="dot-34" class="cls-32" x1="1759.17" y1="10.77" x2="1759.17" y2="22.1"/><line id="dot-35" class="cls-32" x1="1906.62" y1="10.77" x2="1906.62" y2="22.1"/><line id="dot-36" class="cls-32" x1="1929.62" y1="10.77" x2="1929.62" y2="22.1"/><line id="dot-37" class="cls-32" x1="2066.31" y1="10.77" x2="2066.31" y2="22.1"/><line id="dot-38" class="cls-32" x1="2089.31" y1="10.77" x2="2089.31" y2="22.1"/><line id="dot-39" class="cls-32" x1="1736.17" y1="10.77" x2="1736.17" y2="22.1"/><line id="dot-40" class="cls-32" x1="1570.27" y1="10.77" x2="1570.27" y2="22.1"/><line id="dot-41" class="cls-32" x1="1593.27" y1="10.77" x2="1593.27" y2="22.1"/><line id="dot-42" class="cls-32" x1="86.46" y1="10.1" x2="86.46" y2="21.43"/><line id="dot-43" class="cls-32" x1="109.46" y1="10.1" x2="109.46" y2="21.43"/><line id="dot-44" class="cls-32" x1="441.01" y1="10.5" x2="441.01" y2="21.84"/><line id="dot-45" class="cls-32" x1="588.45" y1="10.5" x2="588.45" y2="21.84"/><line id="dot-46" class="cls-32" x1="611.45" y1="10.5" x2="611.45" y2="21.84"/><line id="dot-47" class="cls-32" x1="748.14" y1="10.5" x2="748.14" y2="21.84"/><line id="dot-48" class="cls-32" x1="771.14" y1="10.5" x2="771.14" y2="21.84"/><line id="dot-49" class="cls-32" x1="418.01" y1="10.5" x2="418.01" y2="21.84"/><line id="dot-50" class="cls-32" x1="252.1" y1="10.5" x2="252.1" y2="21.84"/><line id="dot-51" class="cls-32" x1="275.1" y1="10.5" x2="275.1" y2="21.84"/></g><g id="Left"><line id="dot-52" class="cls-32" x1="12.02" y1="756.45" x2="23.36" y2="756.45"/><line id="dot-53" class="cls-32" x1="11.9" y1="859.08" x2="23.24" y2="859.08"/><line id="dot-54" class="cls-32" x1="11.95" y1="962.06" x2="23.29" y2="962.06"/><line id="dot-55" class="cls-32" x1="12.01" y1="1070.15" x2="23.34" y2="1070.15"/><line id="dot-56" class="cls-32" x1="12.83" y1="447.75" x2="24.16" y2="447.75"/><line id="dot-57" class="cls-32" x1="12.71" y1="550.37" x2="24.04" y2="550.37"/><line id="dot-58" class="cls-32" x1="12.76" y1="653.35" x2="24.09" y2="653.35"/><line id="dot-59" class="cls-32" x1="12.47" y1="344.64" x2="23.81" y2="344.64"/><line id="dot-60" class="cls-32" x1="12.54" y1="139.03" x2="23.88" y2="139.03"/><line id="dot-61" class="cls-32" x1="12.43" y1="241.65" x2="23.76" y2="241.65"/><line id="dot-62" class="cls-32" x1="13.28" y1="34.93" x2="24.61" y2="34.93"/></g><g id="Bottom"><line id="dot-63" class="cls-32" x1="86.36" y1="1083.46" x2="86.36" y2="1094.79"/><line id="dot-64" class="cls-32" x1="109.36" y1="1083.46" x2="109.36" y2="1094.79"/><line id="dot-65" class="cls-32" x1="252" y1="1083.86" x2="252" y2="1095.2"/><line id="dot-66" class="cls-32" x1="275" y1="1083.86" x2="275" y2="1095.2"/><line id="dot-67" class="cls-32" x1="416.08" y1="1085.21" x2="416.08" y2="1096.54"/><line id="dot-68" class="cls-32" x1="439.08" y1="1085.21" x2="439.08" y2="1096.54"/></g></g><g id="dot-black"><g id="Upper"><line id="tic" class="cls-34" x1="1416.31" y1="32.12" x2="1416.31" y2="43.46"/><line id="tic-2" class="cls-34" x1="1256.63" y1="32.12" x2="1256.63" y2="43.46"/><line id="tic-3" class="cls-34" x1="1086.67" y1="32.12" x2="1086.67" y2="43.46"/><line id="tic-4" class="cls-34" x1="919.99" y1="32.12" x2="919.99" y2="43.46"/><line id="tic-5" class="cls-34" x1="761.32" y1="32.12" x2="761.32" y2="43.46"/><line id="tic-6" class="cls-34" x1="599.64" y1="32.12" x2="599.64" y2="43.46"/><line id="tic-7" class="cls-34" x1="430.43" y1="32.12" x2="430.43" y2="43.46"/><line id="tic-8" class="cls-34" x1="263.76" y1="32.12" x2="263.76" y2="43.46"/><line id="tic-9" class="cls-34" x1="98.08" y1="32.12" x2="98.08" y2="43.46"/><line id="tic-10" class="cls-34" x1="1748.97" y1="32.12" x2="1748.97" y2="43.46"/><line id="tic-11" class="cls-34" x1="1582.29" y1="32.12" x2="1582.29" y2="43.46"/><line id="tic-12" class="cls-34" x1="2079" y1="32.12" x2="2079" y2="43.46"/><line id="tic-13" class="cls-34" x1="1919.32" y1="32.12" x2="1919.32" y2="43.46"/></g><g id="Left-2"><line id="h-tic" class="cls-34" x1="76.92" y1="138.65" x2="88.09" y2="138.65"/><line id="h-tic-2" class="cls-34" x1="76.84" y1="242.74" x2="88.17" y2="242.74"/><line id="h-tic-3" class="cls-34" x1="76.92" y1="344.43" x2="88.09" y2="344.43"/><line id="h-tic-4" class="cls-34" x1="76.84" y1="448.52" x2="88.17" y2="448.52"/><line id="h-tic-5" class="cls-34" x1="77" y1="550.33" x2="88.17" y2="550.33"/><line id="h-tic-6" class="cls-34" x1="76.92" y1="654.42" x2="88.25" y2="654.42"/><line id="h-tic-7" class="cls-34" x1="77" y1="756.11" x2="88.17" y2="756.11"/><line id="h-tic-8" class="cls-34" x1="76.92" y1="860.21" x2="88.25" y2="860.21"/><line id="h-tic-9" class="cls-34" x1="77.31" y1="961.91" x2="88.64" y2="961.91"/></g><g id="Bottom-2"><line id="tic-14" class="cls-34" x1="98.38" y1="1061.91" x2="98.38" y2="1073.24"/><line id="tic-15" class="cls-34" x1="264.84" y1="1062.4" x2="264.84" y2="1073.74"/></g><g id="Slash-2"><line id="h-tic-10" class="cls-34" x1="330.26" y1="930.53" x2="340.85" y2="934.59"/><line id="h-tic-11" class="cls-34" x1="342.5" y1="909.34" x2="353.09" y2="913.4"/><line id="h-tic-12" class="cls-34" x1="502.5" y1="989.34" x2="513.09" y2="993.4"/><line id="h-tic-13" class="cls-34" x1="516.5" y1="971.34" x2="527.09" y2="975.4"/></g><g id="Right"><line id="h-tic-14" class="cls-34" x1="2088.9" y1="135.16" x2="2100.24" y2="135.16"/></g><g id="Border"><line id="tic-16" class="cls-34" x1="1783.96" y1="215.06" x2="1783.96" y2="226.39"/><line id="tic-17" class="cls-34" x1="1495.22" y1="215.07" x2="1495.22" y2="226.41"/><line id="tic-18" class="cls-34" x1="1097.06" y1="213.71" x2="1097.06" y2="225.04"/><line id="tic-19" class="cls-34" x1="1058.06" y1="168.71" x2="1058.06" y2="180.04"/><line id="tic-20" class="cls-34" x1="670.76" y1="164.9" x2="670.76" y2="176.23"/><line id="tic-21" class="cls-34" x1="627.76" y1="164.9" x2="627.76" y2="176.23"/><g id="double_tic"><line id="tic-22" class="cls-34" x1="614" y1="251.9" x2="614" y2="263.23"/><line id="tic-23" class="cls-34" x1="619.76" y1="251.9" x2="619.76" y2="263.23"/></g><g id="double_tic-2"><line id="tic-24" class="cls-34" x1="604" y1="193.3" x2="604" y2="204.64"/><line id="tic-25" class="cls-34" x1="610.02" y1="193.3" x2="610.02" y2="204.64"/></g><g id="double_tic-3"><line id="tic-26" class="cls-34" x1="653" y1="351.28" x2="653" y2="362.62"/><line id="tic-27" class="cls-34" x1="658.18" y1="351.28" x2="658.18" y2="362.62"/></g><g id="double_tic-4"><line id="tic-28" class="cls-34" x1="803" y1="773.7" x2="803" y2="785.04"/><line id="tic-29" class="cls-34" x1="808.27" y1="773.7" x2="808.27" y2="785.04"/></g><g id="double_tic-5"><line id="tic-30" class="cls-34" x1="1725" y1="775.19" x2="1725" y2="786.52"/><line id="tic-31" class="cls-34" x1="1730.37" y1="775.19" x2="1730.37" y2="786.52"/></g><g id="double_tic-6"><line id="tic-32" class="cls-34" x1="1725" y1="883.54" x2="1725" y2="894.87"/><line id="tic-33" class="cls-34" x1="1730.32" y1="883.54" x2="1730.32" y2="894.87"/></g><line id="tic-34" class="cls-34" x1="677.33" y1="770.7" x2="677.33" y2="782.03"/></g><g id="Status"><g id="s4"><line id="tic-35" class="cls-34" x1="1675.77" y1="873.43" x2="1675.77" y2="884.76"/><line id="tic-36" class="cls-34" x1="1517.77" y1="873.43" x2="1517.77" y2="884.76"/></g><g id="s3"><line id="tic-37" class="cls-34" x1="1451.4" y1="873.29" x2="1451.4" y2="884.62"/><line id="tic-38" class="cls-34" x1="1293.4" y1="873.29" x2="1293.4" y2="884.62"/></g><g id="s2"><line id="tic-39" class="cls-34" x1="1226.1" y1="873.6" x2="1226.1" y2="884.94"/><line id="tic-40" class="cls-34" x1="1068.1" y1="873.6" x2="1068.1" y2="884.94"/></g><g id="s1"><line id="tic-41" class="cls-34" x1="1001" y1="873.36" x2="1001" y2="884.69"/><line id="tic-42" class="cls-34" x1="843" y1="873.36" x2="843" y2="884.69"/></g></g></g><g id="dot-amber"><g id="dot-emergency"><line id="dot-emergency2" class="cls-29" x1="1928.37" y1="771.11" x2="1928.37" y2="790.57"/><line id="dot-emergency1" class="cls-29" x1="1936.8" y1="771.11" x2="1936.8" y2="790.57"/></g><g id="dot-racing"><line id="dot-racing2" class="cls-33" x1="1708" y1="771.56" x2="1708" y2="791.03"/><line id="dot-racing1" class="cls-33" x1="1716.43" y1="771.56" x2="1716.43" y2="791.03"/></g><g id="dot-normal"><line id="dot-normal2" class="cls-29" x1="1483.36" y1="771.56" x2="1483.36" y2="791.03"/><line id="dot-normal1" class="cls-29" x1="1491.79" y1="771.56" x2="1491.79" y2="791.03"/></g><g id="dot-slow"><line id="dot-slow2" class="cls-29" x1="1258.72" y1="771.56" x2="1258.72" y2="791.03"/><line id="dot-slow1" class="cls-29" x1="1267.15" y1="771.56" x2="1267.15" y2="791.03"/></g><g id="dot-stop"><line id="dot-stop2" class="cls-29" x1="1034.08" y1="771.56" x2="1034.08" y2="791.03"/><line id="dot-stop1" class="cls-29" x1="1042.51" y1="771.56" x2="1042.51" y2="791.03"/></g><g id="dot-mode0"><line id="dot-mode0b" class="cls-29" x1="816.48" y1="769.94" x2="816.48" y2="789.41"/><line id="dot-mode0a" class="cls-29" x1="824.91" y1="769.94" x2="824.91" y2="789.41"/></g></g><g id="pan-mode"><g id="pan-emergency"><rect id="border-emergency" class="cls-28" x="1748.78" y="778.89" width="165" height="90.25" rx="5.12" ry="5.12"/><text id="text-danger" class="cls-21" transform="translate(1753.58 824.1) scale(.71 1)"><tspan class="cls-44" x="0" y="0">D</tspan><tspan class="cls-48" x="34.54" y="0">ANGER</tspan></text><text id="text-emergency" class="cls-13" transform="translate(1753.46 862.36) scale(.59 1)"><tspan class="cls-49" x="0" y="0">EME</tspan><tspan class="cls-46" x="86.95" y="0">R</tspan><tspan class="cls-49" x="115.19" y="0">GENCY</tspan></text></g><g id="pan-racing"><rect id="bkg-racing" class="cls-5" x="1514" y="778.57" width="165" height="90.25" rx="5.12" ry="5.12"/><rect id="border-racing" class="cls-27" x="1514" y="778.57" width="165" height="90.25" rx="5.12" ry="5.12"/><text id="text-racing" class="cls-12" transform="translate(1523 821.46) scale(.8 1)"><tspan class="cls-50" x="0" y="0">R</tspan><tspan class="cls-42" x="32.88" y="0">A</tspan><tspan class="cls-50" x="64.38" y="0">CING</tspan></text><rect id="bar-racing" class="cls-7" x="1519" y="832" width="154" height="27" rx="4.26" ry="4.26"/></g><g id="pan-normal"><rect id="bkg-normal" class="cls-5" x="1289.36" y="778.57" width="165" height="90.25" rx="5.12" ry="5.12"/><rect id="border-normal" class="cls-27" x="1289.36" y="778.57" width="165" height="90.25" rx="5.12" ry="5.12"/><rect id="bar-normal" class="cls-7" x="1295" y="832" width="154" height="27" rx="4.26" ry="4.26"/><text id="text-normal" class="cls-9" transform="translate(1299.29 821.99) scale(.74 1)"><tspan x="0" y="0">NORMAL</tspan></text></g><g id="pan-slow"><rect id="bkg-slow" class="cls-5" x="1064.72" y="778.57" width="165" height="90.25" rx="5.12" ry="5.12"/><rect id="border-slow" class="cls-27" x="1064.72" y="778.57" width="165" height="90.25" rx="5.12" ry="5.12"/><text id="text-slow" class="cls-18" transform="translate(1083.04 821.25)"><tspan class="cls-47" x="0" y="0">S</tspan><tspan class="cls-43" x="29.8" y="0">L</tspan><tspan class="cls-53" x="53.76" y="0">O</tspan><tspan class="cls-47" x="90.11" y="0">W</tspan></text><rect id="bar-slow" class="cls-7" x="1070" y="832" width="154" height="27" rx="4.26" ry="4.26"/></g><g id="pan-stop"><rect id="bkg-stop" class="cls-5" x="840.08" y="778.57" width="165" height="90.25" rx="5.12" ry="5.12"/><rect id="border-stop" class="cls-27" x="840.08" y="778.57" width="165" height="90.25" rx="5.12" ry="5.12"/><rect id="bar-stop" class="cls-7" x="846" y="832" width="154" height="27" rx="4.26" ry="4.26"/><text id="text-stop" class="cls-11" transform="translate(855.08 817.77) scale(1.16 1)"><tspan class="cls-51" x="0" y="0">S</tspan><tspan class="cls-45" x="28.34" y="0">T</tspan><tspan class="cls-52" x="51.54" y="0">OP</tspan></text></g></g><g id="pan-clock"><path id="border-clock" class="cls-30" d="m667.97,361.22l-1.26-176.37c-.02-2.67,2.15-4.85,4.82-4.84l385.78.98c1.68,0,3.23.88,4.1,2.31l25.84,42.5c.87,1.43,2.43,2.31,4.11,2.31l1002.43.65c2.65,0,4.8,2.15,4.81,4.81l.41,522.51c0,2.66-2.15,4.82-4.81,4.81l-1318.4-.89c-2.65,0-4.79-2.14-4.81-4.79l-1.95-384.43c-.01-2.65-2.16-4.79-4.81-4.79h-91.44c-2.64,0-4.79-2.13-4.81-4.78Z"/><g id="textgroup-clock"><text id="text-millis" class="cls-24" transform="translate(1425.5 739.83) scale(.73 1)"><tspan x="0" y="0">:87</tspan></text><text id="text-min-sec" class="cls-20" transform="translate(780.5 738) scale(.69 1)"><tspan x="0" y="0">4:59</tspan></text></g><g id="textgroup-active-time"><text id="text-active-time-en" class="cls-10" transform="translate(1076.46 272.04) scale(.94 1)"><tspan class="cls-38" x="0" y="0">A</tspan><tspan class="cls-35" x="24.82" y="0">CTIVE TIME REMAINING:</tspan></text><text id="text-active-time-jp2" class="cls-16" transform="translate(668 348.05) scale(.95 1)"><tspan x="0" y="0">あと</tspan></text><text id="text-active-time-jp1" class="cls-25" transform="translate(676.91 266.95) scale(.76 1)"><tspan x="0" y="0">活動限界</tspan></text><text class="cls-19" transform="translate(929.21 266.95) scale(.8 1)"><tspan x="0" y="0">まで</tspan></text></g></g><g id="pan-power"><g id="pan-external"><g id="dot-green-external"><line id="dot2-external" class="cls-31" x1="1781.67" y1="738" x2="1781.67" y2="746.13"/><line id="dot1-external" class="cls-31" x1="2066.01" y1="738" x2="2066.01" y2="746.13"/></g><rect id="strip-external" class="cls-3" x="2001" y="568" width="65" height="163"/><rect id="border-external" class="cls-27" x="1780" y="566" width="287" height="166"/><text id="text-external-en" class="cls-17" transform="translate(1791.07 723.89) scale(.7 1)"><tspan x="0" y="0">EXTERNAL</tspan></text><text id="text-external-jp" class="cls-14" transform="translate(1785.72 668.34) scale(.95 1)"><tspan x="0" y="0">外部</tspan></text></g><g id="pan-internal"><g id="dot-green-internal"><line id="dot2-internal" class="cls-31" x1="1781.06" y1="271.45" x2="1781.06" y2="279.58"/><line id="dot1-internal" class="cls-31" x1="2066.41" y1="271.45" x2="2066.41" y2="279.58"/></g><rect id="strip-internal" class="cls-1" x="2001" y="282" width="65" height="163"/><rect id="border-internal" class="cls-27" x="1781" y="281" width="286" height="166"/><text id="text-internal-en" class="cls-22" transform="translate(1791.82 439.35) scale(.79 1)"><tspan x="0" y="0">INTERNAL</tspan></text><text id="text-internal-jp" class="cls-15" transform="translate(1784.75 383.58) scale(.98 1)"><tspan x="0" y="0">内部</tspan></text></g><g id="pan-system"><g id="dot-green-system"><line id="dot4-system" class="cls-31" x1="1781.03" y1="557.66" x2="1781.03" y2="563.09"/><line id="dot3-system" class="cls-31" x1="2065.38" y1="556.66" x2="2065.38" y2="562.09"/><line id="dot2-system" class="cls-31" x1="1781.24" y1="451.11" x2="1781.24" y2="456.14"/><line id="dot1-system" class="cls-31" x1="2065.59" y1="452.11" x2="2065.59" y2="457.14"/></g><rect id="border-system" class="cls-27" x="1780" y="460" width="287" height="93"/><text id="text-system-en" class="cls-8" transform="translate(1795 545.71) scale(.57 1)"><tspan class="cls-36" x="0" y="0">MAIN ENE</tspan><tspan class="cls-41" x="141.3" y="0">R</tspan><tspan class="cls-39" x="161.13" y="0">GY SUPP</tspan><tspan class="cls-37" x="288.6" y="0">L</tspan><tspan class="cls-36" x="302.19" y="0">Y S</tspan><tspan class="cls-40" x="347.34" y="0">Y</tspan><tspan class="cls-36" x="364.23" y="0">STEM</tspan></text><text id="text-system-jp" class="cls-23" transform="translate(1787.75 513.77) scale(.56 1)"><tspan x="0" y="0">主電源供給 システム</tspan></text></g></g></g></svg>