<?xml version="1.0" encoding="UTF-8"?>
<svg id="vlpa" viewBox="0 0 250 54.7"  style="enable-background:new 0 0 250 54.675" version="1.1" xml:space="preserve" xmlns="http://www.w3.org/2000/svg" xmlns:dc="http://purl.org/dc/elements/1.1/" xmlns:rdf="http://www.w3.org/1999/02/22-rdf-syntax-ns#"><title>Evangelion 3.0 black logo</title><metadata><rdf:RDF><dc:format>image/svg+xml</dc:format><dc:type rdf:resource="http://purl.org/dc/dcmitype/StillImage"/><dc:title/></rdf:RDF></metadata>

	<path d="m64.3 27.5c-0.747 1.09-2.01 3.32-3.4 5.87-0.521-1.41-1.72-2.64-3.28-1.73-0.358 0.209-2.21 1.37-4.87 2.94-0.099-2.62-0.127-5.13-0.139-7.08 7.45-3.14 15.4-5.9 23.3-7.8 1.06-0.252 0.568-1.28 0-2.27-0.569-0.995-0.995-2.56-2.84-1.99-1.44 0.443-21.5 6.99-48 21.6 6.48-11.3 25.5-21 26.6-21.5 1.21-0.569 1.35-1.28 0.924-2.42s-1.14-1.99-1.85-3.13c0 0-0.142-1.14-2.56 0-15.8 7.45-26.7 20.6-28.3 23-1.08 1.67-2.29 4.83-1.82 7.99-5.43 3.17-11.1 6.66-16.8 10.5-1.28 0.853-1.68 1.38-0.995 1.85 0.915 0.63 4.41 2.98 8.81-0.995 1.34-1.21 5.12-4.01 10.6-7.52 0.069 0.092 0.128 0.186 0.202 0.275 3.41 4.12 9.52 4.83 14.2 3.27 2.5-0.832 9.58-4.28 15.9-7.41 0.575 4.37 1.24 6.85 1.48 8.18 0.426 2.33 4.26 3.22 4.69 1.79 2.38-7.93 11.4-21.6 11.4-21.6-1.28-3.71-3.27-1.86-3.27-1.86zm-41.2 15.3c6.98-4.29 16-9.3 26-13.8 0.083 2.81 0.227 5.28 0.409 7.43-10.4 5.93-27 14.3-26.4 6.32zm31 3.66c-0.494-1.81-0.817-4.28-1.03-6.93 2.58-1.3 4.82-2.43 6.28-3.17-2.66 5-5.25 10.1-5.25 10.1z"/>
	<path d="m68.6 28.7c-1.97 2.21-6.82 11.4-8.39 18.2-0.426 1.85 1.53 1.14 1.53 1.14 1.03 0 1.6-0.142 1.88-1.7s2.56-8.24 5.4-11.3c0.995-1.07 0 10.7 0 13 0 0 2.7 0.711 2.98 0 0.284-0.71 0.711-15.1 0.569-18.6-0.142-3.54-2.01-2.91-3.98-0.699z"/>
	<path d="m156 20.1c-0.924-1.42-2.04-1.76-2.91-0.427-0.35 0.535-5.4 15.6-7.34 23.4-1.68 0.393-4.15 1.08-6.66 2.2-4.48 1.99-4.34 0.284-4.34-0.355s0-1.21 2.13-9.24c2.13-8.03 10.7-27.9 11.7-30.6 0.994-2.7-0.782-4.05-1.42-4.69s-1.8-0.258-2.2 0.711c-5.27 12.6-9.44 26-11.9 34.7-0.153-0.064-0.304-0.1-0.438-0.09-0.646 0.046-8.68 2.63-15.6 5.16 4.83-6.26 15.5-13.3 16.2-13.6 0.853-0.355 0.924-1.21 0.64-1.64-0.284-0.427-0.367-0.625-1.28-1.35-0.32-0.254-0.782-0.284-2.42 0.782-2.74 1.79-5.57 3.84-8.17 5.99-1.23-1.9-8.06-2.95-15-0.445-8.67 3.13-12.9 4.98-13.8 5.4s0.142 3.33 2.98 3.44 13.6-7.57 20.8-6.85c1.42 0.143-5.4 6.82-11.2 10.2-5.83 3.41-12.3 6.14-16.6-0.711-2.13-3.41 8.1-23.1 28.1-28.7 2.67-0.751 3.13 0.568 3.7 0.853 0.568 0.284 0.853-0.568 0.853-0.568-1.42-2.84-2.56-4.99-6.68-4.06-3.62 0.819-16.6 6.73-24.7 18.8 1.12-2.28 2.3-4.36 3.51-5.91 0.995-1.28 0.995-1.56 0-2.42s-1.99-1.85-2.98 0-6.54 14.4-8.81 19.4c0 0-0.284-11-0.142-14 0.142-2.98-1.56-3.13-2.27-3.13-0.71 0-6.82 9.09-6.82 23.2 0 1.85 0.407 2.9 1.28 2.87 1.28-0.044 2.1-0.03 2.05-1.6-0.056-1.56-0.056-9.1 2.36-13.8 0 0 0.711 9.24 1.56 12.8 0.853 3.55 3.27 2.13 3.7 0.284 0.139-0.601 0.729-2.63 1.63-5.31-0.151 8.81 10.9 9.29 12.3 9.29 0.973 0 4.25-0.763 9.4-4.23 0.165 1.48 3.85 2.91 4.54 2.56 0.095-0.049 0.218-0.111 0.352-0.18 3.5 4.41 14.7 1.46 18.5 0.318 0.299 1.16 1.36 1.41 3.52 1.53 2.8 0.156 8.21-1.57 11-2.52 0.207 3.41 3.28 4.15 3.9 0.901 0.651-3.4 5.46-19.4 6.17-21.3s1.84-5.61 0.919-7.03zm-43.9 22c-0.132 0.271-0.251 0.538-0.356 0.803-0.458 0.187-0.893 0.368-1.3 0.543 0.537-0.421 1.09-0.872 1.66-1.35zm2.87 4.66c4.87-2.4 13.4-6.51 17.3-7.92-0.572 2.15-0.992 3.85-1.24 4.96-0.065 0.293-0.124 0.564-0.18 0.83-3.84 2.06-14.3 5.37-15.9 2.13z"/>
	<path d="m171 23c-0.143-2.56-3.34-5.16-5.19-5.19-4.05-0.071-6.82 4.19-10 12.4-3.2 8.17-1.92 19 2.27 19s7.32-4.26 9.95-9.67c2.63-5.4 3.13-14 2.98-16.6zm-5.4 13.4c-1.78 5.12-4.62 10.4-6.96 10s-0.64-10.9 0.924-14.9c1.56-3.98 5.9-10.9 7.18-10 1.91 1.38 0.639 9.81-1.14 14.9z"/>
	<path d="m195 11.9c-0.569-0.498-1.99-1.71-2.84 0-0.853 1.71-9.64 24.2-10.8 28.4-0.214 0.782-2.76-1.96-1.07-21.5 0.143-1.65-2.2-3.64-3.13-3.64s-3.34 6.54-4.9 14c-1.56 7.46-2.7 15.4-2.77 16.5s0.613 1.49 1.73 1.64c0.613 0.077 0.974-1.21 1.33-3.06 0.355-1.85 3.25-14.7 4.27-17.1 0.426-0.995 0.459 18.2 3.13 22 0.498 0.711 2.84 0.455 3.2-0.839s2.89-20.1 12.6-34.1c0.639-0.923-0.142-1.85-0.711-2.34z"/>
	<path d="m196 24.3c1.24 3.2 3.24 1.56 3.31-0.854 0.071-2.42-2.41-5.71-3.31-4.98-0.614 0.498-1.24 2.63 0 5.83z"/>
	<path d="m193 41.9c0.995-0.426 0.355-2.77 0-3.84-0.355-1.06-2.24-3.15-3.2-2.42-0.924 0.71-0.143 2.63 0.355 3.77s1.85 2.91 2.84 2.49z"/>
	<path d="m211 27.3c-1.42-0.285 8.96-4.83 8.96-10.4s-4.98-8.03-9.24-8.03c-4.26 0-9.17 3.62-9.88 4.26-0.71 0.64-0.71 1.71-0.213 2.27s1.99 1.42 1.99 1.42c0.711 0.853 1.85 0.355 3.7-1.07 1.85-1.42 8.32-3.77 9.38-1.78 1.07 1.99-3.07 10.3-13.9 12.1-2.2 0.354-3.27 1.65 1.14 3.41 1.07 0.426 11.2-1.07 11.2 5.54 0 6.61-14.2 10.9-17.6 10.9-3.46 0-3.53-2.27-4.88-0.711-1.35 1.56 0.569 4.12 5.26 4.05s14.8-2.65 20.5-12.3c2.84-4.76-5.05-9.38-6.47-9.67z"/>
	<path d="m249 3.3c-0.711-1.17-1.42-2.49-3.7 0.354-0.499 0.624-1.63 2.4-3.14 4.89-1.15-1.02-2.44-1.55-3.68-1.55-5.19 0-10.7 6.68-12.8 11.3-5.48 12.4-5.38 20.1-3.72 24.6-1.84 3.14-3.12 5.3-3.46 5.77-1.56 2.2-0.711 2.77 0.284 3.27s1.64 1.49 2.77-0.781c0.748-1.5 1.57-3.06 2.45-4.66 1.34 1.56 2.76 2.17 3.37 2.17 5.65 0 11.9-9.6 14.7-15.7 3.88-8.55 4.24-15.1 2.98-19.5 1.61-2.33 2.76-3.99 3.21-4.69 2.06-3.2 1.45-4.33 0.712-5.54zm-20.7 20.5c4.76-9.38 9.1-14.3 11.9-13.1 0.14 0.058 0.302 0.193 0.475 0.4-4.62 7.7-11.5 19.6-16.4 28 0.132-4.33 1.44-10.1 4.06-15.3zm11.1 8.1c-6.18 11.4-10.2 15-13.2 13.8-0.427-0.169-0.782-0.54-1.07-1.07 5.44-9.59 12.6-20.3 17.5-27.5 0.422 3.83-0.116 9.05-3.25 14.8z"/>
	<path d="m212 45.4c-0.977-0.238-1.42 4.41-0.497 5.12 3.04 2.34 3.2 1.14 3.06-1.28s-1.49-3.58-2.56-3.84z"/>

</svg>
