<?xml version="1.0" encoding="UTF-8"?><svg id="Layer_2" xmlns="http://www.w3.org/2000/svg" viewBox="0 0 91.29 112.79">
    <defs>
        <style>
            .cls-1 {
                fill: #3e7e9f;
                stroke-width: 0px;
            }
        </style>
    </defs>
    <g id="Layer_2-2">
        <path class="cls-1"
            d="m66.15.49c-.88.58-1.18.94-.96,1.16.16.17,1.09.41,1.92.5.31.04.57.1.57.14,0,.19-.3.91-.51,1.24-.34.51-.55.61-1.38.67l-.75.05-.38.95c-1.55,3.79-3,9.26-3.62,13.7-.41,2.92-.4,2.77-.14,2.83.63.15,2.4.29,3.02.23,1.39-.13,1.99-.43,2.37-1.19.37-.72,1.01-1.56,1.34-1.77.91-.56,2.18.08,2.78,1.39.17.36.21.66.21,1.36,0,.82-.03.96-.33,1.6-.49.99-1.84,2.31-4.15,4.04-.38.28-.71.5-.73.47-.03-.02.46-1.96.73-2.89.05-.16-.16-.17-3.39-.17h-3.44l-.93,3.17c-.51,1.75-1.15,3.9-1.41,4.78s-1.37,4.67-2.48,8.42c-1.1,3.74-2.01,6.89-2.01,6.98s.31,1.19.69,2.43c.84,2.78,2.85,9.31,3.16,10.27l.22.7.11-.4c.12-.44.97-3.67,2.15-8.2.42-1.6,1.37-5.24,2.12-8.1s1.79-6.84,2.31-8.85c.53-2.01,1.02-3.88,1.1-4.15.13-.47.21-.55,1.27-1.35,1.37-1.04,3.9-3.54,4.8-4.74.83-1.13,1.59-2.5,1.91-3.47.14-.42.44-1.03.66-1.37,3.76-5.63,1.09-15.88-5.33-20.46-.35-.25-.67-.46-.69-.46-.03,0-.39.22-.81.49Z" />
        <path class="cls-1"
            d="m45.03,3.52c.02.13.11.54.2.91.08.38.15.71.15.75s-.34.34-.75.65c-.41.32-.81.7-.89.85-.35.68-1.02,3.14-1.95,7.17-.79,3.42-2.11,9.48-2.08,9.52,0,0,.71.06,1.55.12,1.91.14,4.02.14,4.36,0,.24-.09.26-.14.26-.7,0-.78.12-1,.51-1,.32,0,.65.28,1.22,1.03.15.2.36.37.45.37.1,0,.38.2.62.45.56.57.85.59,1.41.08.54-.48,1.55-2.02,2.22-3.38,1.36-2.72,1.86-5.2,1.37-6.78-.28-.91-1.18-2.61-2.14-4.07-2.39-3.61-5.01-6.19-6.29-6.2-.23,0-.27.03-.22.22Z" />
        <path class="cls-1"
            d="m29.55,6.32c-1.11,1.37-1.53,2.09-1.71,2.87-.19.83-.52,3.49-.62,4.94l-.07,1.08-1.16,1.22c-1.32,1.38-1.49,1.69-1.86,3.36-.54,2.41-.81,5.94-.72,9.46.07,2.67.17,3.47.58,4.68.49,1.49,1.92,4.22,3.97,7.62,1.39,2.29,4.13,6.58,4.18,6.53s3.04-14.08,3.06-14.33c0-.11-.58-1.16-1.31-2.33-2.72-4.4-4.52-7.78-4.72-8.87-.08-.39-.09-1.56-.06-3.4.06-3.26.32-6.17,1.03-11.68.14-1.1.23-2.01.21-2.03-.02-.03-.38.37-.8.88Z" />
        <path class="cls-1"
            d="m48.12,25.57c.03.1.21.92.41,1.83,1.15,5.29,1.36,6.12,1.59,6.57.25.5.6.93.76.93.11,0,.25-.46.4-1.25.28-1.56.63-2.25,1.14-2.25.14,0,.37-.11.52-.24.24-.2.28-.31.27-.73,0-.66-.32-1.34-.78-1.68-.45-.35-.83-.89-1.36-1.97-.23-.46-.43-.84-.44-.86,0,0-.49-.11-1.06-.22s-1.14-.22-1.27-.25c-.19-.05-.23-.02-.18.12Z" />
        <path class="cls-1"
            d="m38.58,26.73s-.65,2.8-1.45,6.18-2,8.47-2.67,11.31l-1.22,5.17.48,1.19c.84,2.13,1.48,2.97,3.21,4.27,1.77,1.32,2.33,2.17,2.42,3.68.07,1.25.29,1.17-3.1,1.24-2.03.04-2.9.1-2.97.18s-.06.31,0,.68c.09.44.09.6,0,.71-.1.12-.08.17.11.29.28.18,2.07.85,2.48.94.17.03.3.11.3.17s-.31.42-.68.79c-.59.58-.77.7-1.27.83-.33.09-.76.24-.97.35-.39.2-.73.71-.64.95.15.39,1.34.61,3.96.74,2.84.14,4.1.59,5.45,1.96,1.3,1.3,2.15,3.49,1.87,4.81-.08.38-.08.61,0,.74.13.24.57.47,1.08.55.4.06.42.05,1.28-.73,5.51-4.99,10.14-7.84,13-8,.51-.03,1.04,0,1.2.04.21.08.78.05,2.09-.09,1.37-.15,2.52-.2,4.94-.21,2.83,0,3.27,0,4.3.21,2.48.46,3.43.94,4.95,2.47.61.61,1.22,1.19,1.37,1.29.34.22.8.23,1.12.02.29-.19.68-.9.86-1.56.13-.48.31-.77.94-1.54,1.01-1.22,4.11-3.67,7.28-5.75,2.06-1.35,2.59-1.77,2.82-2.25.32-.67.16-1.49-.3-1.6-.15-.04-.42-.17-.58-.29-1.47-1.02-2.78-2.63-5.87-7.24-.96-1.42-1.76-2.51-2.15-2.88-.71-.7-.88-1.11-1.08-2.61-.13-.98-.15-1.01-1.13-2.74-.54-.96-1.43-2.55-1.98-3.53-.54-.99-1.04-1.81-1.12-1.84-.18-.07-.54.04-.8.24l-.22.18,1.75,4.25c1.49,3.64,1.74,4.31,1.72,4.7-.03.44-.04.42-2.38-3.48-1.29-2.15-2.35-3.9-2.36-3.89s.03.67.09,1.47c.16,2.37.14,5.07-.06,6.51l-.18,1.26,1.26,2.08c.7,1.14,1.29,2.14,1.31,2.2.05.12-.96.95-1.14.95-.05,0-.83-.86-1.72-1.9-.89-1.05-1.64-1.9-1.65-1.9-.02,0-.11.23-.2.5-.21.63-.55,1.04-1.21,1.46-.82.53-1.18,1.33-1.31,2.91l-.06.83h-.41c-.48,0-4.94-.25-7.11-.4l-1.5-.11-.31.34c-.25.27-.48.86-1.22,3.08-1.25,3.8-1.74,5.65-1.84,6.99-.05.59-.32.52-1.12-.32l-.71-.75-.43-1.39c-1.29-4.13-3.83-11.99-3.9-12.05-.04-.03-1.24-.39-2.67-.79-3.98-1.11-5.65-1.74-6.9-2.6-.93-.64-1.41-1.51-1.31-2.36.18-1.58,1.64-7.14,3.82-14.58.35-1.2.64-2.22.64-2.27s-1.38-.09-3.1-.09-3.1,0-3.1.03Z" />
        <path class="cls-1"
            d="m21.96,35.65c.05,1.22-.07,1.98-.49,3.05-.44,1.09-1.24,2.22-2.33,3.29-.81.78-1.03,1.07-1.36,1.75-.65,1.34-1.13,3.19-1.7,6.5-.25,1.44-.35,1.78-.62,2.24-.44.72-1.79,2.09-3.08,3.12-1.27,1.01-3.88,2.75-4.86,3.24-.4.2-.74.43-.78.52-.12.31-.05,1.01.2,2.09.48,2.11.43,2.87-.21,3.44-.51.45-1.11.53-3.16.45-2.08-.08-2.55.02-3.12.65-.29.32-.36.49-.42.99-.13,1.12.15,1.85.85,2.26.48.28,2.8.37,3.27.12.39-.19.68-.79.9-1.8l.17-.79,1.12-.84,1.12-.83h.84c1.07,0,1.52.21,3.53,1.65,2.97,2.13,4.79,3,6.61,3.2.58.06.62.05.82-.2.37-.47.69-1.96.87-4.08l.07-.79.44.07c.24.03.53.04.63,0,.23-.07.51-.73.51-1.2,0-.54.45-1.83.95-2.69.93-1.63,2.51-3.53,4.73-5.68.81-.77,1.38-1.36,1.27-1.3-.11.07-1.39.91-2.85,1.87s-2.7,1.75-2.77,1.75c-.23,0-.43-.32-.43-.69,0-.28.08-.47.35-.78.43-.5,1.43-1.25,2.51-1.87l.82-.47-.15-.52c-.24-.84-.28-2.96-.09-4,.25-1.33.96-3.11,1.58-3.99q.19-.27-.06-.66c-.28-.45-2.22-3.87-3.81-6.72-.6-1.07-1.27-2.28-1.5-2.68l-.42-.73.05,1.06Z" />
        <path class="cls-1"
            d="m4.74,71.22c.09.35.6,2.56,1.14,4.93.55,2.36,1.02,4.4,1.05,4.52l.05.23h4.4c4.09,0,4.39,0,4.44-.18.02-.09.18-.78.35-1.52s.35-1.49.4-1.65l.08-.3.11.4c.06.22.25,1.04.43,1.83l.33,1.42,4.4-.02,4.41-.03,1.12-4.85c.61-2.67,1.14-4.97,1.17-5.13l.06-.27h-4.76l-.38,1.92c-.44,2.31-1.32,6.9-1.48,7.71-.06.32-.14.55-.18.5-.04-.04-.67-2.34-1.41-5.1l-1.34-5.03h-4.93l-.11.32c-.09.28-1.95,7.21-2.47,9.2-.17.65-.34.89-.34.5,0-.1-.22-1.33-.49-2.73-.28-1.4-.68-3.51-.91-4.69s-.44-2.25-.47-2.38l-.05-.22h-4.76l.14.62Z" />
        <path class="cls-1" d="m30.98,76.15v5.55l1.98-.02,1.97-.03.03-5.53.02-5.52h-4v5.55Z" />
        <path class="cls-1"
            d="m36.88,76.15v5.55h6.41l-.03,1.46-.03,1.46-.81.27c-1.04.35-1.64.71-2.38,1.4-.51.48-1.27,1.49-1.38,1.83-.03.07-.15.05-.36-.06-.3-.15-.32-.19-.26-.54.13-.82-.34-1.69-1.11-2.03-1.37-.63-2.92.5-2.71,1.99.2,1.48,1.84,2.18,3.08,1.3.27-.19.28-.19.67.02.38.19.4.22.29.48-.06.15-.11.79-.12,1.42,0,1.32.15,1.95.73,3.03l.36.69-1.76,1.72-1.77,1.72-.6-.04c-.48-.03-.7,0-1.05.17-1.61.78-1.32,3.21.43,3.6,1.63.36,2.89-1.3,2.11-2.79l-.22-.43,1.69-1.7,1.7-1.7.53.47c.54.49,1.72,1.11,2.3,1.22.76.15.69-.44.69,6.24v6l-.37.19c-1.51.77-1.49,2.82.02,3.52,1.58.73,3.26-.89,2.6-2.49-.2-.47-.5-.79-.97-1.03l-.38-.19v-11.96l.86-.12c.48-.07,1.13-.24,1.45-.37l.59-.24v.49c0,.68.31,1.6.74,2.18,1.36,1.85,4.18,2,5.71.3,1.11-1.23,1.3-2.85.52-4.31-.68-1.29-2.27-2.13-3.65-1.92-.4.06-.43.05-.38-.13.16-.49.36-1.61.36-2.03s-.14-1.39-.26-1.8c-.03-.11.11-.26.41-.46.44-.28.49-.29.83-.17.83.29,1.69.03,2.26-.69.28-.35.31-.45.31-1.12s-.03-.76-.31-1.12c-.47-.57-.88-.78-1.59-.78-1.46,0-2.27,1.37-1.7,2.87.04.1-.04.23-.23.37l-.29.21-.36-.58c-.42-.68-1.43-1.67-2.1-2.06-.67-.4-1.71-.73-2.49-.81l-.68-.07v-2.88l3.93-.02,3.92-.03.03-1.98.02-1.97h-11.2v-7.1h-4v5.55Z" />
        <path class="cls-1" d="m53.18,76.15v5.55l7.58-.02,7.57-.03.03-1.98.02-1.97h-11.2v-7.1h-4v5.55Z" />
        <path class="cls-1" d="m70.98,76.15v5.55h15.4v-4h-11.4v-.8h11.4v-1.6h-11.4v-.8h11.4v-3.9h-15.4v5.55Z" />
    </g>
</svg>
